<svg id="Layer_1" data-name="Layer 1" xmlns="http://www.w3.org/2000/svg" viewBox="0 0 64 64"><defs><style>.cls-1,.cls-2,.cls-3{fill:none;stroke-width:2.5px;}.cls-1{stroke:#008cc4;}.cls-2{stroke:#863387;}.cls-3{stroke:#ba762c;}</style></defs><title>Protege-Blender</title><path class="cls-1" d="M51.53,30.79C46,39.17,35.89,42.4,32.29,40.09s-6.73-6.16-1.18-14.54,26-22.9,26-22.9S57.08,22.4,51.53,30.79Z"/><path class="cls-2" d="M36.4,45.3c-5.91-8.15-5.28-18.56-1.78-21s8.29-3.91,14.2,4.24S61,60.65,61,60.65,42.31,53.44,36.4,45.3Z"/><path class="cls-3" d="M29.74,16.05c10.18-.24,18.59,6.11,18.69,10.33s-1.35,8.94-11.53,9.19S3,27.48,3,27.48,19.57,16.3,29.74,16.05Z"/></svg>