<svg width="20" height="19" viewBox="0 0 20 19" fill="none" xmlns="http://www.w3.org/2000/svg">
<path d="M10 0C15.523 0 20 4.25315 20 9.5C20 14.7469 15.523 19 10 19C4.477 19 0 14.7469 0 9.5C0 4.25315 4.477 0 10 0ZM14.596 5.1338C14.392 4.93905 14.07 4.91245 13.833 5.07015C10.943 6.99675 9.313 8.13865 8.939 8.49205C8.354 9.04875 8.354 9.95125 8.939 10.5079C9.525 11.0637 10.475 11.0637 11.061 10.5079C11.28 10.299 12.479 8.7495 14.659 5.8558C14.827 5.6335 14.8 5.3276 14.596 5.1338ZM15.5 8.55C14.948 8.55 14.5 8.9756 14.5 9.5C14.5 10.0244 14.948 10.45 15.5 10.45C16.052 10.45 16.5 10.0244 16.5 9.5C16.5 8.9756 16.052 8.55 15.5 8.55ZM4.5 8.55C3.948 8.55 3.5 8.9756 3.5 9.5C3.5 10.0244 3.948 10.45 4.5 10.45C5.052 10.45 5.5 10.0244 5.5 9.5C5.5 8.9756 5.052 8.55 4.5 8.55ZM6.818 5.1338C6.428 4.7633 5.794 4.7633 5.404 5.1338C5.014 5.5043 5.014 6.10565 5.404 6.4771C5.794 6.8476 6.427 6.8476 6.818 6.4771C7.208 6.1066 7.208 5.5043 6.818 5.1338ZM10 3.325C9.448 3.325 9 3.7506 9 4.275C9 4.7994 9.448 5.225 10 5.225C10.552 5.225 11 4.7994 11 4.275C11 3.7506 10.552 3.325 10 3.325Z" fill="#8495AD"/>
</svg>
