<svg width="19" height="19" viewBox="0 0 19 19" fill="none" xmlns="http://www.w3.org/2000/svg">
<path d="M4.5 9C3.90905 9 3.32389 8.8836 2.77792 8.65746C2.23196 8.43131 1.73588 8.09984 1.31802 7.68198C0.900156 7.26412 0.568688 6.76804 0.342542 6.22208C0.116396 5.67611 0 5.09095 0 4.5C0 3.90905 0.116396 3.32389 0.342542 2.77792C0.568688 2.23196 0.900156 1.73588 1.31802 1.31802C1.73588 0.900156 2.23196 0.568688 2.77792 0.342542C3.32389 0.116396 3.90905 -8.80582e-09 4.5 0C5.69347 1.77842e-08 6.83807 0.474106 7.68198 1.31802C8.52589 2.16193 9 3.30653 9 4.5C9 5.69347 8.52589 6.83807 7.68198 7.68198C6.83807 8.52589 5.69347 9 4.5 9ZM4.5 19C3.30653 19 2.16193 18.5259 1.31802 17.682C0.474106 16.8381 0 15.6935 0 14.5C0 13.3065 0.474106 12.1619 1.31802 11.318C2.16193 10.4741 3.30653 10 4.5 10C5.69347 10 6.83807 10.4741 7.68198 11.318C8.52589 12.1619 9 13.3065 9 14.5C9 15.6935 8.52589 16.8381 7.68198 17.682C6.83807 18.5259 5.69347 19 4.5 19ZM14.5 9C13.9091 9 13.3239 8.8836 12.7779 8.65746C12.232 8.43131 11.7359 8.09984 11.318 7.68198C10.9002 7.26412 10.5687 6.76804 10.3425 6.22208C10.1164 5.67611 10 5.09095 10 4.5C10 3.90905 10.1164 3.32389 10.3425 2.77792C10.5687 2.23196 10.9002 1.73588 11.318 1.31802C11.7359 0.900156 12.232 0.568688 12.7779 0.342542C13.3239 0.116396 13.9091 -8.80582e-09 14.5 0C15.6935 1.77842e-08 16.8381 0.474106 17.682 1.31802C18.5259 2.16193 19 3.30653 19 4.5C19 5.69347 18.5259 6.83807 17.682 7.68198C16.8381 8.52589 15.6935 9 14.5 9ZM14.5 19C13.3065 19 12.1619 18.5259 11.318 17.682C10.4741 16.8381 10 15.6935 10 14.5C10 13.3065 10.4741 12.1619 11.318 11.318C12.1619 10.4741 13.3065 10 14.5 10C15.6935 10 16.8381 10.4741 17.682 11.318C18.5259 12.1619 19 13.3065 19 14.5C19 15.6935 18.5259 16.8381 17.682 17.682C16.8381 18.5259 15.6935 19 14.5 19Z" fill="white"/>
</svg>
