<svg id="Layer_1" data-name="Layer 1" xmlns="http://www.w3.org/2000/svg" viewBox="0 0 200 200"><defs><style>.cls-1{fill:#008cc4;}</style></defs><title>question-icon</title><path class="cls-1" d="M39.75,42.4a62,62,0,0,1,13-20.66A58.53,58.53,0,0,1,72.85,8.1,68,68,0,0,1,99.2,3.2q18.81,0,31.39,5.16t20.26,12.85a46.46,46.46,0,0,1,11,16.55,47.48,47.48,0,0,1,3.31,16.55q0,12.72-3.31,20.93a51.52,51.52,0,0,1-8.21,14,54.66,54.66,0,0,1-10.86,9.94q-6,4.1-11.25,8.21a52.66,52.66,0,0,0-9.41,9.4A27,27,0,0,0,117,130.06v10.06H81.2V128.21q.8-11.39,4.37-19.07A54.56,54.56,0,0,1,93.91,96,66.31,66.31,0,0,1,104,86.63q5.3-4,9.8-7.95a35.48,35.48,0,0,0,7.28-8.74c1.86-3.18,2.69-7.15,2.52-11.92q0-12.18-6-18t-16.55-5.82A25.59,25.59,0,0,0,88.74,37a24.56,24.56,0,0,0-8.47,7.41,32.13,32.13,0,0,0-4.9,10.86,53.93,53.93,0,0,0-1.59,13.38H34.85A75.48,75.48,0,0,1,39.75,42.4ZM119.07,156V196.8H77.49V156Z"/></svg>