<?xml version="1.0" standalone="yes"?>
<!DOCTYPE svg PUBLIC "-//W3C//DTD SVG 1.1//EN"
        "http://www.w3.org/Graphics/SVG/1.1/DTD/svg11.dtd">
<svg xmlns="http://www.w3.org/2000/svg" width="16" height="16">
    <circle cx="8" cy="8" r="3.5" fill="none" stroke="#000000" stroke-width="3.5"/>
    <line x1="8" y1="4" x2="8" y2="1.5"
          stroke="#000000"
          stroke-linecap="round"
          stroke-width="3" transform="rotate(0 8 8)"/>
    <line x1="8" y1="4" x2="8" y2="1.5"
          stroke="#000000"
          stroke-linecap="round"
          stroke-width="3" transform="rotate(45 8 8)"/>
    <line x1="8" y1="4" x2="8" y2="1.5"
          stroke="#000000"
          stroke-linecap="round"
          stroke-width="3" transform="rotate(90 8 8)"/>
    <line x1="8" y1="4" x2="8" y2="1.5"
          stroke="#000000"
          stroke-linecap="round"
          stroke-width="3" transform="rotate(135 8 8)"/>
    <line x1="8" y1="4" x2="8" y2="1.5"
          stroke="#000000"
          stroke-linecap="round"
          stroke-width="3" transform="rotate(180 8 8)"/>
    <line x1="8" y1="4" x2="8" y2="1.5"
          stroke="#000000"
          stroke-linecap="round"
          stroke-width="3" transform="rotate(225 8 8)"/>
    <line x1="8" y1="4" x2="8" y2="1.5"
          stroke="#000000"
          stroke-linecap="round"
          stroke-width="3" transform="rotate(270 8 8)"/>
    <line x1="8" y1="4" x2="8" y2="1.5"
          stroke="#000000"
          stroke-linecap="round"
          stroke-width="3" transform="rotate(315 8 8)"/>
</svg>
