<svg version="1.1" xmlns="http://www.w3.org/2000/svg" style="fill:#808080;" width="18" height="18" viewBox="0 0 35.968 22.768"><path d="M35.952000 0.384000 C35.952000 0.512001 35.912000 0.629333 35.832000 0.736000 C35.752000 0.842667 35.664000 0.896000 35.568000 0.896000 C34.778663 0.970667 34.133336 1.223998 33.632000 1.656000 C33.130664 2.088002 32.613336 2.911994 32.080000 4.128000 L23.920000 22.512000 C23.866666 22.682668 23.717335 22.768000 23.472000 22.768000 C23.279999 22.768000 23.130667 22.682668 23.024000 22.512000 L18.448000 12.944000 L13.184000 22.512000 C13.077333 22.682668 12.928001 22.768000 12.736000 22.768000 C12.501332 22.768000 12.346667 22.682668 12.272000 22.512000 L4.256000 4.128000 C3.754664 2.986661 3.226669 2.189336 2.672000 1.736000 C2.117331 1.282664 1.344005 1.002667 0.352000 0.896000 C0.266666 0.896000 0.186667 0.850667 0.112000 0.760000 C0.037333 0.669333 0.000000 0.565334 0.000000 0.448000 C0.000000 0.149332 0.085332 -0.000000 0.256000 -0.000000 C0.970670 -0.000000 1.717329 0.032000 2.496000 0.096000 C3.221337 0.160000 3.903997 0.192000 4.544000 0.192000 C5.194670 0.192000 5.962662 0.160000 6.848000 0.096000 C7.776005 0.032000 8.597330 -0.000000 9.312000 -0.000000 C9.482668 -0.000000 9.568000 0.149332 9.568000 0.448000 C9.568000 0.746668 9.514667 0.896000 9.408000 0.896000 C8.693330 0.949334 8.130669 1.130665 7.720000 1.440000 C7.309331 1.749335 7.104000 2.154664 7.104000 2.656000 C7.104000 2.912001 7.189332 3.231998 7.360000 3.616000 L13.984000 18.576000 L17.744000 11.472000 L14.240000 4.128000 C13.610664 2.815993 13.093335 1.970669 12.688000 1.592000 C12.282665 1.213331 11.669337 0.981334 10.848000 0.896000 C10.773333 0.896000 10.701334 0.850667 10.632000 0.760000 C10.562666 0.669333 10.528000 0.565334 10.528000 0.448000 C10.528000 0.149332 10.602666 -0.000000 10.752000 -0.000000 C11.466670 -0.000000 12.122664 0.032000 12.720000 0.096000 C13.296003 0.160000 13.909330 0.192000 14.560000 0.192000 C15.200003 0.192000 15.877330 0.160000 16.592000 0.096000 C17.328004 0.032000 18.053330 -0.000000 18.768000 -0.000000 C18.938668 -0.000000 19.024000 0.149332 19.024000 0.448000 C19.024000 0.746668 18.970667 0.896000 18.864000 0.896000 C17.434660 0.992000 16.720000 1.397330 16.720000 2.112000 C16.720000 2.432002 16.885332 2.927997 17.216000 3.600000 L19.536000 8.304000 L21.840000 4.000000 C22.160002 3.391997 22.320000 2.880002 22.320000 2.464000 C22.320000 1.482662 21.605340 0.960000 20.176000 0.896000 C20.047999 0.896000 19.984000 0.746668 19.984000 0.448000 C19.984000 0.341333 20.016000 0.240000 20.080000 0.144000 C20.144000 0.048000 20.208000 -0.000000 20.272000 -0.000000 C20.784003 -0.000000 21.413330 0.032000 22.160000 0.096000 C22.874670 0.160000 23.461331 0.192000 23.920000 0.192000 C24.250668 0.192000 24.735997 0.165334 25.376000 0.112000 C26.186671 0.037333 26.863997 -0.000000 27.408000 -0.000000 C27.536001 -0.000000 27.600000 0.127999 27.600000 0.384000 C27.600000 0.725335 27.482668 0.896000 27.248000 0.896000 C26.415996 0.981334 25.746669 1.210665 25.240000 1.584000 C24.733331 1.957335 24.101337 2.805327 23.344000 4.128000 L20.272000 9.808000 L24.432000 18.288000 L30.576000 4.000000 C30.789334 3.477331 30.896000 2.997336 30.896000 2.560000 C30.896000 1.514661 30.181340 0.960000 28.752000 0.896000 C28.623999 0.896000 28.560000 0.746668 28.560000 0.448000 C28.560000 0.149332 28.655999 -0.000000 28.848000 -0.000000 C29.370669 -0.000000 29.989330 0.032000 30.704000 0.096000 C31.365337 0.160000 31.919998 0.192000 32.368000 0.192000 C32.837336 0.192000 33.381330 0.160000 34.000000 0.096000 C34.640003 0.032000 35.215997 -0.000000 35.728000 -0.000000 C35.877334 -0.000000 35.952000 0.127999 35.952000 0.384000 Z M35.968000 22.064000" /></svg>